<?xml version="1.0" encoding="UTF-8"?> <svg xmlns="http://www.w3.org/2000/svg" width="159" height="159" viewBox="0 0 159 159" fill="none"> <circle cx="79.5" cy="79.5" r="79.5" fill="white"></circle> <path fill-rule="evenodd" clip-rule="evenodd" d="M101.249 53.4V55.575C101.249 56.7762 100.275 57.75 99.0741 57.75C97.8729 57.75 96.8991 56.7762 96.8991 55.575V53.4H42.525C41.3232 53.4 40.35 54.3725 40.35 55.575V77.325C40.35 78.5275 41.3232 79.5 42.525 79.5H70.7991V77.3463C70.7991 73.7407 73.7206 70.8213 77.3241 70.8213H81.6741C85.2777 70.8213 88.1991 73.7407 88.1991 77.3463V79.5H116.475C117.677 79.5 118.65 78.5275 118.65 77.325V55.575C118.65 54.3725 117.677 53.4 116.475 53.4H101.249ZM101.249 49.05H116.475C120.079 49.05 123 51.9694 123 55.575V77.325C123 80.9306 120.079 83.85 116.475 83.85H88.1991V86.0463C88.1991 89.6487 85.2766 92.5713 81.6741 92.5713H77.3241C73.7217 92.5713 70.7991 89.6487 70.7991 86.0463V83.85H44.6991V103.425C44.6991 104.628 45.6723 105.6 46.8741 105.6H112.124C113.326 105.6 114.299 104.628 114.299 103.425V90.375C114.299 89.1738 115.273 88.2 116.474 88.2C117.675 88.2 118.649 89.1738 118.649 90.375V103.425C118.649 107.031 115.728 109.95 112.124 109.95H46.8741C43.2706 109.95 40.3491 107.031 40.3491 103.425V83.4786C37.8153 82.5831 36 80.1672 36 77.325V55.575C36 51.9694 38.9214 49.05 42.525 49.05H96.8991V42.525C96.8991 41.3225 95.926 40.35 94.7241 40.35H64.2741C63.0723 40.35 62.0991 41.3225 62.0991 42.525C62.0991 43.7262 61.1254 44.7 59.9241 44.7C58.7229 44.7 57.7491 43.7262 57.7491 42.525C57.7491 38.9194 60.6706 36 64.2741 36H94.7241C98.3277 36 101.249 38.9194 101.249 42.525V49.05ZM83.8491 83.85H81.7359C80.5347 83.85 79.5609 82.8762 79.5609 81.675C79.5609 80.4738 80.5347 79.5 81.7359 79.5H83.8491V77.3463C83.8491 76.1438 82.876 75.1713 81.6741 75.1713H77.3241C76.1223 75.1713 75.1491 76.1438 75.1491 77.3463V86.0463C75.1491 87.2463 76.1242 88.2213 77.3241 88.2213H81.6741C82.8741 88.2213 83.8491 87.2463 83.8491 86.0463V83.85Z" fill="#1C67C8"></path> <path d="M101.249 53.4V52.9H100.749V53.4H101.249ZM96.8991 53.4H97.3991V52.9H96.8991V53.4ZM70.7991 79.5V80H71.2991V79.5H70.7991ZM88.1991 79.5H87.6991V80H88.1991V79.5ZM101.249 49.05H100.749V49.55H101.249V49.05ZM88.1991 83.85V83.35H87.6991V83.85H88.1991ZM70.7991 83.85H71.2991V83.35H70.7991V83.85ZM44.6991 83.85V83.35H44.1991V83.85H44.6991ZM40.3491 83.4786H40.8491V83.125L40.5158 83.0072L40.3491 83.4786ZM96.8991 49.05V49.55H97.3991V49.05H96.8991ZM83.8491 83.85H84.3491V83.35H83.8491V83.85ZM83.8491 79.5V80H84.3491V79.5H83.8491ZM101.749 55.575V53.4H100.749V55.575H101.749ZM99.0741 58.25C100.552 58.25 101.749 57.0524 101.749 55.575H100.749C100.749 56.5001 99.9992 57.25 99.0741 57.25V58.25ZM96.3991 55.575C96.3991 57.0524 97.5968 58.25 99.0741 58.25V57.25C98.1491 57.25 97.3991 56.5001 97.3991 55.575H96.3991ZM96.3991 53.4V55.575H97.3991V53.4H96.3991ZM42.525 53.9H96.8991V52.9H42.525V53.9ZM40.85 55.575C40.85 54.6488 41.5992 53.9 42.525 53.9V52.9C41.0471 52.9 39.85 54.0963 39.85 55.575H40.85ZM40.85 77.325V55.575H39.85V77.325H40.85ZM42.525 79C41.5992 79 40.85 78.2512 40.85 77.325H39.85C39.85 78.8037 41.0471 80 42.525 80V79ZM70.7991 79H42.525V80H70.7991V79ZM70.2991 77.3463V79.5H71.2991V77.3463H70.2991ZM77.3241 70.3213C73.4445 70.3213 70.2991 73.4645 70.2991 77.3463H71.2991C71.2991 74.0169 73.9966 71.3213 77.3241 71.3213V70.3213ZM81.6741 70.3213H77.3241V71.3213H81.6741V70.3213ZM88.6991 77.3463C88.6991 73.4645 85.5538 70.3213 81.6741 70.3213V71.3213C85.0017 71.3213 87.6991 74.0169 87.6991 77.3463H88.6991ZM88.6991 79.5V77.3463H87.6991V79.5H88.6991ZM116.475 79H88.1991V80H116.475V79ZM118.15 77.325C118.15 78.2512 117.401 79 116.475 79V80C117.953 80 119.15 78.8037 119.15 77.325H118.15ZM118.15 55.575V77.325H119.15V55.575H118.15ZM116.475 53.9C117.401 53.9 118.15 54.6488 118.15 55.575H119.15C119.15 54.0963 117.953 52.9 116.475 52.9V53.9ZM101.249 53.9H116.475V52.9H101.249V53.9ZM101.249 49.55H116.475V48.55H101.249V49.55ZM116.475 49.55C119.803 49.55 122.5 52.2456 122.5 55.575H123.5C123.5 51.6932 120.355 48.55 116.475 48.55V49.55ZM122.5 55.575V77.325H123.5V55.575H122.5ZM122.5 77.325C122.5 80.6544 119.803 83.35 116.475 83.35V84.35C120.355 84.35 123.5 81.2068 123.5 77.325H122.5ZM116.475 83.35H88.1991V84.35H116.475V83.35ZM87.6991 83.85V86.0463H88.6991V83.85H87.6991ZM87.6991 86.0463C87.6991 89.3726 85.0004 92.0713 81.6741 92.0713V93.0713C85.5527 93.0713 88.6991 89.9249 88.6991 86.0463H87.6991ZM81.6741 92.0713H77.3241V93.0713H81.6741V92.0713ZM77.3241 92.0713C73.9979 92.0713 71.2991 89.3726 71.2991 86.0463H70.2991C70.2991 89.9249 73.4456 93.0713 77.3241 93.0713V92.0713ZM71.2991 86.0463V83.85H70.2991V86.0463H71.2991ZM70.7991 83.35H44.6991V84.35H70.7991V83.35ZM44.1991 83.85V103.425H45.1991V83.85H44.1991ZM44.1991 103.425C44.1991 104.904 45.3963 106.1 46.8741 106.1V105.1C45.9484 105.1 45.1991 104.351 45.1991 103.425H44.1991ZM46.8741 106.1H112.124V105.1H46.8741V106.1ZM112.124 106.1C113.602 106.1 114.799 104.904 114.799 103.425H113.799C113.799 104.351 113.05 105.1 112.124 105.1V106.1ZM114.799 103.425V90.375H113.799V103.425H114.799ZM114.799 90.375C114.799 89.4499 115.549 88.7 116.474 88.7V87.7C114.997 87.7 113.799 88.8976 113.799 90.375H114.799ZM116.474 88.7C117.399 88.7 118.149 89.4499 118.149 90.375H119.149C119.149 88.8976 117.952 87.7 116.474 87.7V88.7ZM118.149 90.375V103.425H119.149V90.375H118.149ZM118.149 103.425C118.149 106.754 115.452 109.45 112.124 109.45V110.45C116.004 110.45 119.149 107.307 119.149 103.425H118.149ZM112.124 109.45H46.8741V110.45H112.124V109.45ZM46.8741 109.45C43.5466 109.45 40.8491 106.754 40.8491 103.425H39.8491C39.8491 107.307 42.9945 110.45 46.8741 110.45V109.45ZM40.8491 103.425V83.4786H39.8491V103.425H40.8491ZM40.5158 83.0072C38.1755 82.18 36.5 79.9488 36.5 77.325H35.5C35.5 80.3857 37.4552 82.9861 40.1825 83.95L40.5158 83.0072ZM36.5 77.325V55.575H35.5V77.325H36.5ZM36.5 55.575C36.5 52.2456 39.1975 49.55 42.525 49.55V48.55C38.6454 48.55 35.5 51.6932 35.5 55.575H36.5ZM42.525 49.55H96.8991V48.55H42.525V49.55ZM96.3991 42.525V49.05H97.3991V42.525H96.3991ZM94.7241 40.85C95.6499 40.85 96.3991 41.5988 96.3991 42.525H97.3991C97.3991 41.0463 96.202 39.85 94.7241 39.85V40.85ZM64.2741 40.85H94.7241V39.85H64.2741V40.85ZM62.5991 42.525C62.5991 41.5988 63.3484 40.85 64.2741 40.85V39.85C62.7963 39.85 61.5991 41.0463 61.5991 42.525H62.5991ZM59.9241 45.2C61.4015 45.2 62.5991 44.0024 62.5991 42.525H61.5991C61.5991 43.4501 60.8492 44.2 59.9241 44.2V45.2ZM57.2491 42.525C57.2491 44.0024 58.4468 45.2 59.9241 45.2V44.2C58.9991 44.2 58.2491 43.4501 58.2491 42.525H57.2491ZM64.2741 35.5C60.3945 35.5 57.2491 38.6432 57.2491 42.525H58.2491C58.2491 39.1956 60.9466 36.5 64.2741 36.5V35.5ZM94.7241 35.5H64.2741V36.5H94.7241V35.5ZM101.749 42.525C101.749 38.6432 98.6038 35.5 94.7241 35.5V36.5C98.0517 36.5 100.749 39.1956 100.749 42.525H101.749ZM101.749 49.05V42.525H100.749V49.05H101.749ZM81.7359 84.35H83.8491V83.35H81.7359V84.35ZM79.0609 81.675C79.0609 83.1524 80.2585 84.35 81.7359 84.35V83.35C80.8108 83.35 80.0609 82.6001 80.0609 81.675H79.0609ZM81.7359 79C80.2585 79 79.0609 80.1976 79.0609 81.675H80.0609C80.0609 80.7499 80.8108 80 81.7359 80V79ZM83.8491 79H81.7359V80H83.8491V79ZM83.3491 77.3463V79.5H84.3491V77.3463H83.3491ZM81.6741 75.6713C82.5999 75.6713 83.3491 76.4201 83.3491 77.3463H84.3491C84.3491 75.8676 83.152 74.6713 81.6741 74.6713V75.6713ZM77.3241 75.6713H81.6741V74.6713H77.3241V75.6713ZM75.6491 77.3463C75.6491 76.4201 76.3984 75.6713 77.3241 75.6713V74.6713C75.8463 74.6713 74.6491 75.8676 74.6491 77.3463H75.6491ZM75.6491 86.0463V77.3463H74.6491V86.0463H75.6491ZM77.3241 87.7213C76.4003 87.7213 75.6491 86.9701 75.6491 86.0463H74.6491C74.6491 87.5224 75.848 88.7213 77.3241 88.7213V87.7213ZM81.6741 87.7213H77.3241V88.7213H81.6741V87.7213ZM83.3491 86.0463C83.3491 86.9701 82.598 87.7213 81.6741 87.7213V88.7213C83.1503 88.7213 84.3491 87.5224 84.3491 86.0463H83.3491ZM83.3491 83.85V86.0463H84.3491V83.85H83.3491Z" fill="#1C67C8"></path> </svg> 