<?xml version="1.0" encoding="UTF-8"?> <svg xmlns="http://www.w3.org/2000/svg" width="159" height="159" viewBox="0 0 159 159" fill="none"> <circle cx="79.5" cy="79.5" r="79.5" fill="white"></circle> <path fill-rule="evenodd" clip-rule="evenodd" d="M75 40.0556H84.0305C84.0105 40.1416 84 40.2306 84 40.3219V45.3838C82.5254 45.2025 81.0236 45.1091 79.5 45.1091C77.9764 45.1091 76.4746 45.2025 75 45.3838V40.0556ZM87.6111 40.0556H86.9695C86.9895 40.1416 87 40.2306 87 40.3219V45.6781C87 45.7457 86.9942 45.8122 86.9831 45.8771C92.4905 47.0248 97.5427 49.4139 101.834 52.7385L105.38 49.1924C105.604 48.9681 105.868 48.8074 106.149 48.7101L104.554 47.1154C103.762 46.3235 103.762 45.0396 104.554 44.2477C105.346 43.4558 106.63 43.4558 107.422 44.2477L113.156 49.9822C113.948 50.7741 113.948 52.058 113.156 52.8499C112.364 53.6418 111.08 53.6418 110.289 52.8499L108.73 51.2913C108.633 51.5721 108.472 51.8358 108.248 52.0601L104.905 55.4027C111.747 62.0371 116 71.327 116 81.6091C116 101.766 99.6567 118.109 79.5 118.109C59.3433 118.109 43 101.766 43 81.6091C43 64.0231 55.4404 49.3398 72 45.8806V40.0556H71.3889C70.269 40.0556 69.3611 39.1477 69.3611 38.0278C69.3611 36.9079 70.269 36 71.3889 36H87.6111C88.731 36 89.6389 36.9079 89.6389 38.0278C89.6389 39.1477 88.731 40.0556 87.6111 40.0556ZM79.5 49.1646C97.4169 49.1646 111.944 63.6922 111.944 81.6091C111.944 99.5259 97.4169 114.054 79.5 114.054C61.5831 114.054 47.0556 99.5259 47.0556 81.6091C47.0556 63.6922 61.5831 49.1646 79.5 49.1646ZM79.5 78C81.431 78 83 79.569 83 81.5C83 83.431 81.431 85 79.5 85C77.569 85 76 83.431 76 81.5C76 79.569 77.569 78 79.5 78ZM85.5833 81.6091C85.5833 84.9677 82.8586 87.6924 79.5 87.6924C76.1414 87.6924 73.4167 84.9677 73.4167 81.6091C73.4167 78.7461 75.3966 76.3437 78.0613 75.697C78.0214 75.5334 78 75.3601 78 75.1808V58.8192C78 57.8145 78.6716 57 79.5 57C80.3284 57 81 57.8145 81 58.8192V75.1808C81 75.3601 80.9786 75.5334 80.9387 75.697C83.6034 76.3437 85.5833 78.7461 85.5833 81.6091Z" fill="#1C67C8"></path> <path d="M84.0305 40.0556L84.761 40.2252L84.9745 39.3056H84.0305V40.0556ZM75 40.0556V39.3056H74.25V40.0556H75ZM84 45.3838L83.9085 46.1282L84.75 46.2317V45.3838H84ZM75 45.3838H74.25V46.2317L75.0915 46.1282L75 45.3838ZM86.9695 40.0556V39.3056H86.0255L86.239 40.2252L86.9695 40.0556ZM86.9831 45.8771L86.2439 45.7505L86.1217 46.4637L86.8301 46.6113L86.9831 45.8771ZM101.834 52.7385L101.375 53.3313L101.897 53.7361L102.364 53.2688L101.834 52.7385ZM105.38 49.1924L105.91 49.7227L105.91 49.7227L105.38 49.1924ZM106.149 48.7101L106.394 49.4189L107.526 49.0269L106.679 48.1798L106.149 48.7101ZM104.554 47.1154L105.084 46.585L104.554 47.1154ZM104.554 44.2477L105.084 44.778L105.084 44.778L104.554 44.2477ZM107.422 44.2477L107.952 43.7173L107.952 43.7173L107.422 44.2477ZM113.156 49.9822L112.626 50.5126L112.626 50.5126L113.156 49.9822ZM113.156 52.8499L112.626 52.3196L112.626 52.3196L113.156 52.8499ZM110.289 52.8499L110.819 52.3196L110.819 52.3196L110.289 52.8499ZM108.73 51.2913L109.26 50.7609L108.413 49.9138L108.021 51.0459L108.73 51.2913ZM108.248 52.0601L107.717 51.5298L107.717 51.5298L108.248 52.0601ZM104.905 55.4027L104.375 54.8724L103.836 55.411L104.383 55.9412L104.905 55.4027ZM72 45.8806L72.1534 46.6147L72.75 46.4901V45.8806H72ZM72 40.0556H72.75V39.3056H72V40.0556ZM78.0613 75.697L78.2381 76.4259L78.9676 76.2489L78.79 75.5196L78.0613 75.697ZM80.9387 75.697L80.21 75.5196L80.0324 76.2489L80.7619 76.4259L80.9387 75.697ZM84.0305 39.3056H75V40.8056H84.0305V39.3056ZM84.75 40.3219C84.75 40.2884 84.7538 40.2562 84.761 40.2252L83.2999 39.886C83.2672 40.027 83.25 40.1729 83.25 40.3219H84.75ZM84.75 45.3838V40.3219H83.25V45.3838H84.75ZM79.5 45.8591C80.9929 45.8591 82.4642 45.9506 83.9085 46.1282L84.0915 44.6394C82.5866 44.4543 81.0543 44.3591 79.5 44.3591V45.8591ZM75.0915 46.1282C76.5358 45.9506 78.0071 45.8591 79.5 45.8591V44.3591C77.9457 44.3591 76.4134 44.4543 74.9085 44.6394L75.0915 46.1282ZM74.25 40.0556V45.3838H75.75V40.0556H74.25ZM86.9695 40.8056H87.6111V39.3056H86.9695V40.8056ZM87.75 40.3219C87.75 40.1729 87.7328 40.027 87.7001 39.886L86.239 40.2252C86.2462 40.2562 86.25 40.2884 86.25 40.3219H87.75ZM87.75 45.6781V40.3219H86.25V45.6781H87.75ZM87.7224 46.0037C87.7406 45.8973 87.75 45.7885 87.75 45.6781H86.25C86.25 45.703 86.2479 45.7271 86.2439 45.7505L87.7224 46.0037ZM102.293 52.1456C97.9143 48.753 92.7578 46.3144 87.1361 45.1428L86.8301 46.6113C92.2232 47.7352 97.1712 50.0748 101.375 53.3313L102.293 52.1456ZM104.85 48.6621L101.304 52.2081L102.364 53.2688L105.91 49.7227L104.85 48.6621ZM105.903 48.0014C105.518 48.135 105.156 48.3558 104.85 48.6621L105.91 49.7227C106.053 49.5805 106.218 49.4798 106.394 49.4189L105.903 48.0014ZM106.679 48.1798L105.084 46.585L104.024 47.6457L105.618 49.2405L106.679 48.1798ZM105.084 46.585C104.585 46.086 104.585 45.277 105.084 44.778L104.024 43.7173C102.939 44.8021 102.939 46.5609 104.024 47.6457L105.084 46.585ZM105.084 44.778C105.583 44.279 106.392 44.279 106.891 44.778L107.952 43.7173C106.867 42.6326 105.108 42.6325 104.024 43.7173L105.084 44.778ZM106.891 44.778L112.626 50.5126L113.687 49.4519L107.952 43.7173L106.891 44.778ZM112.626 50.5126C113.125 51.0116 113.125 51.8206 112.626 52.3196L113.687 53.3803C114.771 52.2955 114.771 50.5367 113.687 49.4519L112.626 50.5126ZM112.626 52.3196C112.127 52.8186 111.318 52.8186 110.819 52.3196L109.758 53.3803C110.843 54.4651 112.602 54.4651 113.687 53.3803L112.626 52.3196ZM110.819 52.3196L109.26 50.7609L108.2 51.8216L109.758 53.3803L110.819 52.3196ZM108.778 52.5905C109.084 52.2842 109.305 51.9224 109.439 51.5367L108.021 51.0459C107.96 51.2218 107.86 51.3875 107.717 51.5298L108.778 52.5905ZM105.435 55.9331L108.778 52.5905L107.717 51.5298L104.375 54.8724L105.435 55.9331ZM116.75 81.6091C116.75 71.1158 112.409 61.6341 105.427 54.8643L104.383 55.9412C111.086 62.4402 115.25 71.5382 115.25 81.6091H116.75ZM79.5 118.859C100.071 118.859 116.75 102.18 116.75 81.6091H115.25C115.25 101.352 99.2425 117.359 79.5 117.359V118.859ZM42.25 81.6091C42.25 102.18 58.9291 118.859 79.5 118.859V117.359C59.7575 117.359 43.75 101.352 43.75 81.6091H42.25ZM71.8466 45.1464C54.9466 48.6768 42.25 63.6608 42.25 81.6091H43.75C43.75 64.3854 55.9343 50.0028 72.1534 46.6147L71.8466 45.1464ZM71.25 40.0556V45.8806H72.75V40.0556H71.25ZM71.3889 40.8056H72V39.3056H71.3889V40.8056ZM68.6111 38.0278C68.6111 39.5619 69.8548 40.8056 71.3889 40.8056V39.3056C70.6832 39.3056 70.1111 38.7335 70.1111 38.0278H68.6111ZM71.3889 35.25C69.8548 35.25 68.6111 36.4937 68.6111 38.0278H70.1111C70.1111 37.3221 70.6832 36.75 71.3889 36.75V35.25ZM87.6111 35.25H71.3889V36.75H87.6111V35.25ZM90.3889 38.0278C90.3889 36.4937 89.1452 35.25 87.6111 35.25V36.75C88.3168 36.75 88.8889 37.3221 88.8889 38.0278H90.3889ZM87.6111 40.8056C89.1452 40.8056 90.3889 39.5619 90.3889 38.0278H88.8889C88.8889 38.7335 88.3168 39.3056 87.6111 39.3056V40.8056ZM112.694 81.6091C112.694 63.278 97.8311 48.4146 79.5 48.4146V49.9146C97.0027 49.9146 111.194 64.1064 111.194 81.6091H112.694ZM79.5 114.804C97.8311 114.804 112.694 99.9402 112.694 81.6091H111.194C111.194 99.1117 97.0027 113.304 79.5 113.304V114.804ZM46.3056 81.6091C46.3056 99.9402 61.1689 114.804 79.5 114.804V113.304C61.9973 113.304 47.8056 99.1117 47.8056 81.6091H46.3056ZM79.5 48.4146C61.1689 48.4146 46.3056 63.278 46.3056 81.6091H47.8056C47.8056 64.1064 61.9973 49.9146 79.5 49.9146V48.4146ZM83.75 81.5C83.75 79.1548 81.8452 77.25 79.5 77.25V78.75C81.0168 78.75 82.25 79.9832 82.25 81.5H83.75ZM79.5 85.75C81.8452 85.75 83.75 83.8452 83.75 81.5H82.25C82.25 83.0168 81.0168 84.25 79.5 84.25V85.75ZM75.25 81.5C75.25 83.8452 77.1548 85.75 79.5 85.75V84.25C77.9832 84.25 76.75 83.0168 76.75 81.5H75.25ZM79.5 77.25C77.1548 77.25 75.25 79.1548 75.25 81.5H76.75C76.75 79.9832 77.9832 78.75 79.5 78.75V77.25ZM79.5 88.4424C83.2728 88.4424 86.3333 85.3819 86.3333 81.6091H84.8333C84.8333 84.5534 82.4444 86.9424 79.5 86.9424V88.4424ZM72.6667 81.6091C72.6667 85.3819 75.7272 88.4424 79.5 88.4424V86.9424C76.5556 86.9424 74.1667 84.5534 74.1667 81.6091H72.6667ZM77.8844 74.9682C74.8913 75.6946 72.6667 78.3919 72.6667 81.6091H74.1667C74.1667 79.1003 75.9018 76.9929 78.2381 76.4259L77.8844 74.9682ZM77.25 75.1808C77.25 75.4198 77.2785 75.6526 77.3326 75.8745L78.79 75.5196C78.7643 75.4142 78.75 75.3005 78.75 75.1808H77.25ZM77.25 58.8192V75.1808H78.75V58.8192H77.25ZM79.5 56.25C78.1285 56.25 77.25 57.5421 77.25 58.8192H78.75C78.75 58.0868 79.2147 57.75 79.5 57.75V56.25ZM81.75 58.8192C81.75 57.5421 80.8715 56.25 79.5 56.25V57.75C79.7853 57.75 80.25 58.0868 80.25 58.8192H81.75ZM81.75 75.1808V58.8192H80.25V75.1808H81.75ZM81.6674 75.8745C81.7215 75.6526 81.75 75.4198 81.75 75.1808H80.25C80.25 75.3005 80.2357 75.4141 80.21 75.5196L81.6674 75.8745ZM86.3333 81.6091C86.3333 78.3919 84.1087 75.6946 81.1156 74.9682L80.7619 76.4259C83.0982 76.9929 84.8333 79.1003 84.8333 81.6091H86.3333Z" fill="#1C67C8"></path> </svg> 