<?xml version="1.0" encoding="UTF-8"?> <svg xmlns="http://www.w3.org/2000/svg" width="159" height="159" viewBox="0 0 159 159" fill="none"> <circle cx="79.5" cy="79.5" r="79.5" fill="white"></circle> <path fill-rule="evenodd" clip-rule="evenodd" d="M82.5366 90.1658L82.5351 70.8784L109.794 64.0341C110.9 63.7564 111.556 62.6912 111.26 61.655C110.963 60.6188 109.826 60.0039 108.72 60.2816L82.5348 66.8564L82.5341 56.9173C82.5341 56.0371 83.1639 55.2681 84.0697 55.0409L116.316 46.9563C117.311 46.7064 117.853 47.0786 117.853 47.9237V105.076C117.853 106.33 116.636 107.775 115.243 108.126L80.9737 116.719C80.5109 116.84 80.395 116.84 79.9869 116.729L45.7576 108.126C44.3637 107.776 43.1469 106.33 43.1469 105.076V47.9237C43.1469 47.0786 43.6895 46.7064 44.6834 46.9561L71.4717 53.6925C72.5777 53.9706 73.7149 53.3561 74.0118 52.32C74.3087 51.2839 73.6528 50.2185 72.5468 49.9403L45.7579 43.2038C42.1732 42.3034 39 44.4796 39 47.9237V105.076C39 108.11 41.4987 111.078 44.6834 111.878L78.8742 120.472C79.9801 120.771 80.8827 120.778 82.0703 120.466L116.316 111.878C119.501 111.078 122 108.11 122 105.076V47.9237C122 44.4796 118.827 42.3034 115.243 43.2036L82.9974 51.2881C80.2778 51.9702 78.3872 54.2787 78.3872 56.9174L78.388 67.8976L75.6862 68.576C74.5801 68.8538 73.9237 69.9189 74.2202 70.9552C74.5166 71.9914 75.6536 72.6063 76.7597 72.3286L78.3883 71.9196L78.3898 91.2071L75.6862 91.8859C74.5801 92.1636 73.9237 93.2288 74.2202 94.265C74.5166 95.3013 75.6536 95.9162 76.7597 95.6384L78.3901 95.2291L78.3913 110.829C78.3914 111.902 79.3198 112.772 80.4649 112.772C81.61 112.772 82.5383 111.902 82.5382 110.829L82.5369 94.1879L109.794 87.344C110.9 87.0663 111.556 86.0011 111.26 84.9649C110.963 83.9286 109.826 83.3137 108.72 83.5915L82.5366 90.1658ZM89.4293 80.7219L109.956 75.6909C111.064 75.4193 111.727 74.3579 111.438 73.32C111.148 72.2821 110.015 71.6609 108.907 71.9324L88.3797 76.9634C87.2719 77.235 86.6087 78.2964 86.8986 79.3343C87.1884 80.3722 88.3214 80.9935 89.4293 80.7219ZM95.3426 102.628L89.3379 104.135C88.2318 104.413 87.0948 103.798 86.7984 102.761C86.502 101.725 87.1584 100.66 88.2645 100.382L94.2692 98.875C95.3754 98.5973 96.5123 99.2122 96.8087 100.248C97.1051 101.285 96.4487 102.35 95.3426 102.628Z" fill="#1C67C8"></path> <path d="M82.5351 70.8784L82.3525 70.151L81.7851 70.2935L81.7851 70.8785L82.5351 70.8784ZM82.5366 90.1658L81.7866 90.1659L81.7867 91.1274L82.7193 90.8933L82.5366 90.1658ZM109.794 64.0341L109.611 63.3067L109.611 63.3067L109.794 64.0341ZM108.72 60.2816L108.903 61.009L108.903 61.009L108.72 60.2816ZM82.5348 66.8564L81.7848 66.8565L81.7849 67.818L82.7175 67.5838L82.5348 66.8564ZM82.5341 56.9173L81.7841 56.9173L81.7841 56.9173L82.5341 56.9173ZM84.0697 55.0409L83.8873 54.3134L83.8872 54.3135L84.0697 55.0409ZM116.316 46.9563L116.498 47.6838L116.498 47.6837L116.316 46.9563ZM115.243 108.126L115.425 108.853L115.425 108.853L115.243 108.126ZM80.9737 116.719L80.7912 115.991L80.7831 115.994L80.9737 116.719ZM79.9869 116.729L80.1829 116.005L80.1697 116.002L79.9869 116.729ZM45.7576 108.126L45.9404 107.398L45.9403 107.398L45.7576 108.126ZM44.6834 46.9561L44.8663 46.2287L44.8661 46.2287L44.6834 46.9561ZM71.4717 53.6925L71.2888 54.4199L71.2888 54.4199L71.4717 53.6925ZM74.0118 52.32L74.7328 52.5266L74.7328 52.5266L74.0118 52.32ZM72.5468 49.9403L72.3639 50.6677L72.3639 50.6677L72.5468 49.9403ZM45.7579 43.2038L45.9408 42.4764L45.9406 42.4764L45.7579 43.2038ZM44.6834 111.878L44.8662 111.151L44.8661 111.151L44.6834 111.878ZM78.8742 120.472L79.0704 119.747L79.057 119.744L78.8742 120.472ZM82.0703 120.466L81.8879 119.738L81.8795 119.74L82.0703 120.466ZM116.316 111.878L116.498 112.606L116.499 112.606L116.316 111.878ZM115.243 43.2036L115.425 43.9311L115.425 43.9311L115.243 43.2036ZM82.9974 51.2881L82.815 50.5606L82.815 50.5606L82.9974 51.2881ZM78.3872 56.9174L77.6372 56.9174L77.6372 56.9175L78.3872 56.9174ZM78.388 67.8976L78.5707 68.625L79.1381 68.4826L79.138 67.8976L78.388 67.8976ZM75.6862 68.576L75.5035 67.8486L75.5035 67.8486L75.6862 68.576ZM76.7597 72.3286L76.577 71.6011L76.577 71.6011L76.7597 72.3286ZM78.3883 71.9196L79.1383 71.9196L79.1382 70.9581L78.2057 71.1922L78.3883 71.9196ZM78.3898 91.2071L78.5724 91.9345L79.1398 91.792L79.1398 91.207L78.3898 91.2071ZM75.6862 91.8859L75.8688 92.6133L75.8688 92.6133L75.6862 91.8859ZM74.2202 94.265L73.4991 94.4713L73.4991 94.4713L74.2202 94.265ZM76.7597 95.6384L76.9423 96.3659L76.9423 96.3659L76.7597 95.6384ZM78.3901 95.2291L79.1401 95.229L79.14 94.2675L78.2075 94.5016L78.3901 95.2291ZM78.3913 110.829L77.6413 110.829L77.6413 110.829L78.3913 110.829ZM80.4649 112.772L80.465 113.522L80.4649 112.772ZM82.5382 110.829L81.7882 110.829L81.7882 110.829L82.5382 110.829ZM82.5369 94.1879L82.3543 93.4604L81.7869 93.6029L81.7869 94.1879L82.5369 94.1879ZM109.794 87.344L109.611 86.6166L109.611 86.6166L109.794 87.344ZM108.72 83.5915L108.538 82.864L108.538 82.864L108.72 83.5915ZM109.956 75.6909L109.778 74.9624L109.778 74.9624L109.956 75.6909ZM89.4293 80.7219L89.2507 79.9935L89.2507 79.9935L89.4293 80.7219ZM108.907 71.9324L109.085 72.6608L109.085 72.6608L108.907 71.9324ZM88.3797 76.9634L88.2012 76.235L88.2012 76.235L88.3797 76.9634ZM86.8986 79.3343L86.1762 79.536L86.1762 79.536L86.8986 79.3343ZM89.3379 104.135L89.5205 104.862L89.5205 104.862L89.3379 104.135ZM95.3426 102.628L95.16 101.9L95.16 101.9L95.3426 102.628ZM86.7984 102.761L86.0773 102.968L86.0773 102.968L86.7984 102.761ZM88.2645 100.382L88.4472 101.11L88.4472 101.11L88.2645 100.382ZM94.2692 98.875L94.0866 98.1475L94.0866 98.1475L94.2692 98.875ZM96.8087 100.248L97.5298 100.042L97.5298 100.042L96.8087 100.248ZM81.7851 70.8785L81.7866 90.1659L83.2866 90.1658L83.2851 70.8784L81.7851 70.8785ZM109.611 63.3067L82.3525 70.151L82.7178 71.6058L109.976 64.7616L109.611 63.3067ZM110.539 61.8613C110.707 62.4503 110.347 63.1218 109.611 63.3067L109.976 64.7616C111.452 64.391 112.405 62.9321 111.981 61.4487L110.539 61.8613ZM108.903 61.009C109.654 60.8204 110.364 61.2502 110.539 61.8613L111.981 61.4487C111.563 59.9874 109.999 59.1873 108.538 59.5542L108.903 61.009ZM82.7175 67.5838L108.903 61.009L108.538 59.5542L82.3522 66.129L82.7175 67.5838ZM81.7841 56.9173L81.7848 66.8565L83.2848 66.8564L83.2841 56.9172L81.7841 56.9173ZM83.8872 54.3135C82.6771 54.617 81.7841 55.6639 81.7841 56.9173H83.2841C83.2841 56.4104 83.6507 55.9193 84.2522 55.7684L83.8872 54.3135ZM116.133 46.2288L83.8873 54.3134L84.2521 55.7684L116.498 47.6838L116.133 46.2288ZM118.603 47.9237C118.603 47.3466 118.411 46.7511 117.864 46.3988C117.352 46.0691 116.72 46.0815 116.133 46.2289L116.498 47.6837C116.906 47.5813 117.043 47.6548 117.051 47.6599C117.053 47.6613 117.054 47.6618 117.055 47.6627C117.056 47.6638 117.06 47.6698 117.067 47.6848C117.081 47.7166 117.103 47.7895 117.103 47.9237H118.603ZM118.603 105.076V47.9237H117.103V105.076H118.603ZM115.425 108.853C116.3 108.633 117.081 108.084 117.642 107.426C118.197 106.773 118.603 105.932 118.603 105.076H117.103C117.103 105.473 116.901 105.982 116.499 106.454C116.103 106.919 115.579 107.268 115.06 107.398L115.425 108.853ZM81.1561 117.446L115.425 108.853L115.06 107.398L80.7912 115.991L81.1561 117.446ZM79.791 117.453C80.001 117.51 80.2176 117.563 80.4662 117.561C80.707 117.559 80.9325 117.505 81.1642 117.444L80.7831 115.994C80.5521 116.054 80.4882 116.061 80.4534 116.061C80.4263 116.061 80.3809 116.059 80.1828 116.005L79.791 117.453ZM45.5748 108.853L79.8041 117.457L80.1697 116.002L45.9404 107.398L45.5748 108.853ZM42.3969 105.076C42.3969 105.932 42.8028 106.773 43.3585 107.426C43.919 108.084 44.7003 108.633 45.5749 108.853L45.9403 107.398C45.4209 107.268 44.8969 106.919 44.5006 106.454C44.0994 105.982 43.8969 105.473 43.8969 105.076H42.3969ZM42.3969 47.9237V105.076H43.8969V47.9237H42.3969ZM44.8661 46.2287C44.2793 46.0813 43.648 46.0691 43.1362 46.3989C42.5895 46.7512 42.3969 47.3466 42.3969 47.9237H43.8969C43.8969 47.7895 43.9188 47.7165 43.9329 47.6847C43.9395 47.6697 43.9445 47.6637 43.9454 47.6625C43.9461 47.6617 43.9466 47.6611 43.9487 47.6598C43.9566 47.6547 44.0935 47.5812 44.5007 47.6835L44.8661 46.2287ZM71.6546 52.9652L44.8663 46.2287L44.5005 47.6834L71.2888 54.4199L71.6546 52.9652ZM73.2908 52.1134C73.1157 52.7245 72.4055 53.154 71.6546 52.9652L71.2888 54.4199C72.7499 54.7873 74.3141 53.9877 74.7328 52.5266L73.2908 52.1134ZM72.3639 50.6677C73.1 50.8528 73.4596 51.5244 73.2908 52.1134L74.7328 52.5266C75.1578 51.0433 74.2055 49.5841 72.7297 49.213L72.3639 50.6677ZM45.575 43.9311L72.3639 50.6677L72.7297 49.213L45.9408 42.4764L45.575 43.9311ZM39.75 47.9237C39.75 46.4484 40.422 45.2731 41.4625 44.5506C42.5099 43.8233 43.9731 43.5288 45.5752 43.9312L45.9406 42.4764C43.958 41.9784 42.0422 42.3218 40.6069 43.3185C39.1646 44.3201 38.25 45.9548 38.25 47.9237H39.75ZM39.75 105.076V47.9237H38.25V105.076H39.75ZM44.8661 111.151C41.9711 110.423 39.75 107.723 39.75 105.076H38.25C38.25 108.497 41.0262 111.733 44.5007 112.605L44.8661 111.151ZM79.057 119.744L44.8662 111.151L44.5006 112.605L78.6914 121.199L79.057 119.744ZM81.8795 119.74C80.8153 120.02 80.0462 120.012 79.0703 119.748L78.678 121.195C79.9141 121.53 80.9502 121.536 82.2611 121.191L81.8795 119.74ZM116.133 111.151L81.8879 119.738L82.2527 121.193L116.498 112.606L116.133 111.151ZM121.25 105.076C121.25 107.723 119.029 110.423 116.133 111.151L116.499 112.606C119.974 111.733 122.75 108.497 122.75 105.076H121.25ZM121.25 47.9237V105.076H122.75V47.9237H121.25ZM115.425 43.9311C117.027 43.5287 118.49 43.8232 119.538 44.5506C120.578 45.273 121.25 46.4484 121.25 47.9237H122.75C122.75 45.9548 121.835 44.3201 120.393 43.3185C118.958 42.3218 117.042 41.9783 115.06 42.4762L115.425 43.9311ZM83.1798 52.0155L115.425 43.9311L115.06 42.4762L82.815 50.5606L83.1798 52.0155ZM79.1372 56.9174C79.1372 54.6522 80.7643 52.6214 83.1799 52.0155L82.815 50.5606C79.7913 51.319 77.6372 53.9052 77.6372 56.9174H79.1372ZM79.138 67.8976L79.1372 56.9173L77.6372 56.9175L77.638 67.8977L79.138 67.8976ZM75.8688 69.3034L78.5707 68.625L78.2054 67.1702L75.5035 67.8486L75.8688 69.3034ZM74.9412 70.7489C74.7727 70.1598 75.1325 69.4883 75.8688 69.3034L75.5035 67.8486C74.0276 68.2192 73.0747 69.678 73.4991 71.1614L74.9412 70.7489ZM76.577 71.6011C75.8261 71.7897 75.1161 71.36 74.9412 70.7489L73.4991 71.1614C73.9171 72.6228 75.4811 73.4229 76.9423 73.056L76.577 71.6011ZM78.2057 71.1922L76.577 71.6011L76.9423 73.056L78.571 72.6471L78.2057 71.1922ZM79.1398 91.207L79.1383 71.9196L77.6383 71.9197L77.6398 91.2071L79.1398 91.207ZM75.8688 92.6133L78.5724 91.9345L78.2072 90.4796L75.5035 91.1585L75.8688 92.6133ZM74.9412 94.0588C74.7727 93.4697 75.1325 92.7982 75.8688 92.6133L75.5035 91.1585C74.0276 91.5291 73.0747 92.9879 73.4991 94.4713L74.9412 94.0588ZM76.577 94.911C75.8261 95.0996 75.1161 94.6699 74.9412 94.0588L73.4991 94.4713C73.9171 95.9327 75.4811 96.7328 76.9423 96.3659L76.577 94.911ZM78.2075 94.5016L76.577 94.911L76.9423 96.3659L78.5728 95.9565L78.2075 94.5016ZM79.1413 110.829L79.1401 95.229L77.6401 95.2291L77.6413 110.829L79.1413 110.829ZM80.4649 112.022C79.6871 112.022 79.1414 111.443 79.1413 110.829L77.6413 110.829C77.6414 112.362 78.9525 113.522 80.465 113.522L80.4649 112.022ZM81.7882 110.829C81.7882 111.442 81.2426 112.022 80.4649 112.022L80.465 113.522C81.9775 113.522 83.2883 112.361 83.2882 110.829L81.7882 110.829ZM81.7869 94.1879L81.7882 110.829L83.2882 110.829L83.2869 94.1878L81.7869 94.1879ZM109.611 86.6166L82.3543 93.4604L82.7196 94.9153L109.976 88.0714L109.611 86.6166ZM110.539 85.1712C110.707 85.7602 110.347 86.4317 109.611 86.6166L109.976 88.0714C111.452 87.7008 112.405 86.242 111.981 84.7586L110.539 85.1712ZM108.903 84.3189C109.654 84.1303 110.364 84.56 110.539 85.1712L111.981 84.7586C111.563 83.2972 109.999 82.4972 108.538 82.864L108.903 84.3189ZM82.7193 90.8933L108.903 84.3189L108.538 82.864L82.354 89.4384L82.7193 90.8933ZM109.778 74.9624L89.2507 79.9935L89.6078 81.4504L110.135 76.4193L109.778 74.9624ZM110.715 73.5217C110.88 74.1116 110.516 74.7816 109.778 74.9624L110.135 76.4193C111.613 76.0571 112.575 74.6042 112.16 73.1183L110.715 73.5217ZM109.085 72.6608C109.838 72.4764 110.544 72.9102 110.715 73.5217L112.16 73.1183C111.751 71.6541 110.192 70.8453 108.728 71.2039L109.085 72.6608ZM88.5582 77.6919L109.085 72.6608L108.728 71.2039L88.2012 76.235L88.5582 77.6919ZM87.6209 79.1326C87.4562 78.5428 87.8203 77.8727 88.5582 77.6919L88.2012 76.235C86.7234 76.5972 85.7613 78.0501 86.1762 79.536L87.6209 79.1326ZM89.2507 79.9935C88.4984 80.1779 87.7917 79.7441 87.6209 79.1326L86.1762 79.536C86.5851 81.0003 88.1445 81.809 89.6078 81.4504L89.2507 79.9935ZM89.5205 104.862L95.5252 103.355L95.16 101.9L89.1553 103.408L89.5205 104.862ZM86.0773 102.968C86.4953 104.429 88.0592 105.229 89.5205 104.862L89.1553 103.408C88.4043 103.596 87.6943 103.166 87.5195 102.555L86.0773 102.968ZM88.0819 99.6549C86.606 100.025 85.653 101.484 86.0773 102.968L87.5195 102.555C87.351 101.966 87.7109 101.295 88.4472 101.11L88.0819 99.6549ZM94.0866 98.1475L88.0819 99.6549L88.4472 101.11L94.4519 99.6024L94.0866 98.1475ZM97.5298 100.042C97.1118 98.5809 95.5479 97.7807 94.0866 98.1475L94.4519 99.6024C95.2028 99.4139 95.9128 99.8436 96.0876 100.455L97.5298 100.042ZM95.5252 103.355C97.0011 102.984 97.9541 101.526 97.5298 100.042L96.0876 100.455C96.2561 101.044 95.8962 101.715 95.16 101.9L95.5252 103.355Z" fill="#1C67C8"></path> </svg> 